<svg xmlns="http://www.w3.org/2000/svg" xmlns:xlink="http://www.w3.org/1999/xlink" width="17" height="28" viewBox="0 0 17 28"><defs><path id="ryova" d="M16.54 14.04l-3.43-1.99a1.47 1.47 0 0 1-.56-.7l-1.06-3.63a.84.84 0 0 0-.12-.24.9.9 0 0 0-.8-.48l-4.53.2a.9.9 0 0 0-.54.2l-.09.06-3.08 2.38c-.36.28-.55.84-.45 1.28l1.22 5.26a1.02 1.02 0 0 0 1.07.76l.45-.04a.85.85 0 0 0 .6-.34c.14-.2.2-.44.14-.68l-.86-4.06a.76.76 0 0 1 .24-.67l.55-.42.28 6.52v.02l-1.25 2.79c-.16.35-.55.83-.87 1.06L.52 23.43A1.3 1.3 0 0 0 .1 25l.4.87c.16.35.48.56.84.56.2 0 .4-.07.58-.2l3.88-2.9c.39-.28.86-.84 1.09-1.27l1.93-3.74.04-.09h.14l3.16 8.75a1.58 1.58 0 0 0 1.95.96l.2-.06a1.46 1.46 0 0 0 .94-1.9l-3.34-9.22-.06-.13-.1-2.47 3.68 1.91c.12.07.27.1.42.1.34 0 .65-.18.81-.47l.22-.4c.24-.45.08-1-.35-1.25z"/><path id="ryovb" d="M8 7h.13c.8-.04 1.54-.45 2.08-1.13.54-.7.82-1.59.79-2.52C10.93 1.42 9.54-.08 7.87 0c-.8.04-1.54.45-2.08 1.13A3.84 3.84 0 0 0 5 3.65C5.07 5.53 6.4 7 8 7z"/></defs><g><g><g><use fill="#fff" xlink:href="#ryova"/></g><g><use fill="#fff" xlink:href="#ryovb"/></g></g></g></svg>