<svg xmlns="http://www.w3.org/2000/svg" xmlns:xlink="http://www.w3.org/1999/xlink" width="21" height="21" viewBox="0 0 21 21"><defs><path id="kl2ta" d="M14 1v6h6"/><path id="kl2tb" d="M21 0l-7 7"/><path id="kl2tc" d="M20 15.92v3a2 2 0 0 1-2.18 2 19.79 19.79 0 0 1-8.63-3.07 19.5 19.5 0 0 1-6-6A19.79 19.79 0 0 1 .12 3.18 2 2 0 0 1 2.1 1h3a2 2 0 0 1 2 1.72c.12.96.36 1.9.7 2.81a2 2 0 0 1-.45 2.11L6.09 8.91a16 16 0 0 0 6 6l1.27-1.27a2 2 0 0 1 2.1-.45c.92.34 1.86.57 2.82.7A2 2 0 0 1 20 15.92z"/></defs><g><g><g><use fill="#fff" fill-opacity="0" stroke="#fff" stroke-linecap="round" stroke-linejoin="round" stroke-miterlimit="50" stroke-width="2" xlink:href="#kl2ta"/></g><g><use fill="#fff" fill-opacity="0" stroke="#fff" stroke-linecap="round" stroke-linejoin="round" stroke-miterlimit="50" stroke-width="2" xlink:href="#kl2tb"/></g><g><use fill="#fff" fill-opacity="0" stroke="#fff" stroke-linecap="round" stroke-linejoin="round" stroke-miterlimit="50" stroke-width="2" xlink:href="#kl2tc"/></g></g></g></svg>