<svg xmlns="http://www.w3.org/2000/svg" xmlns:xlink="http://www.w3.org/1999/xlink" width="31" height="22" viewBox="0 0 31 22"><defs><path id="jzqra" d="M30.56 7.35l-.44 2.13a.78.78 0 0 1-.77.63h-.94c.9 1 1.34 2.28 1.33 3.56 0 1.42-.54 2.83-1.67 3.87v2.93c0 .64-.53 1.17-1.17 1.17h-2.75c-.65 0-1.17-.53-1.17-1.17v-1.2H7.6v1.2c0 .64-.53 1.17-1.17 1.17H3.68c-.65 0-1.17-.53-1.17-1.17v-3l-.04-.02a5.18 5.18 0 0 1-1.63-3.89c0-1.23.41-2.47 1.27-3.45h-.89a.78.78 0 0 1-.76-.63L.02 7.35a.78.78 0 0 1 .76-.94h2.98c.74-1.94 1.69-3.84 2.78-4.55 3.76-2.48 13.74-2.48 17.5 0 1.09.71 2.04 2.61 2.78 4.55h2.97a.79.79 0 0 1 .77.94zm-24.75.29h18.96c-.7-1.9-1.44-3.44-2.02-3.82-3-1.98-11.92-1.98-14.92 0-.58.38-1.33 1.92-2.02 3.82zm.82 8.53a2.31 2.31 0 1 0 0-4.62 2.31 2.31 0 0 0 0 4.62zm19.66-2.31a2.3 2.3 0 1 0-4.62 0 2.3 2.3 0 0 0 4.62 0z"/></defs><g><g><g><use fill="#fff" xlink:href="#jzqra"/></g></g></g></svg>