<svg xmlns="http://www.w3.org/2000/svg" xmlns:xlink="http://www.w3.org/1999/xlink" width="137" height="158" viewBox="0 0 137 158"><defs><path id="iu3ba" d="M0 0h136.04v157H0z"/><path id="iu3bc" d="M129.46 157a5.04 5.04 0 0 1-3.97-1.5l1.13-1.14c.75.76 1.8 1.16 2.87 1.08 1.47 0 2.31-.64 2.31-1.74.03-.44-.13-.87-.44-1.18-.34-.3-.77-.47-1.22-.48l-1.33-.19a3.83 3.83 0 0 1-2.12-.91 2.85 2.85 0 0 1-.82-2.17c0-1.99 1.41-3.34 3.74-3.34 1.3-.08 2.56.4 3.49 1.3l-1.1 1.08a3.26 3.26 0 0 0-2.43-.88 1.8 1.8 0 0 0-2.05 1.77c-.01.4.14.78.43 1.05.36.3.8.48 1.26.53l1.28.2c.77.05 1.5.35 2.1.84a3 3 0 0 1 .9 2.33c0 2.1-1.68 3.34-4.03 3.34zm-11.78-9.93v9.83h-1.7v-9.83h-3.09v-1.55h7.88v1.55zm-12.06 9.83l-5.18-8v8h-1.7v-11.38h1.56l5.19 7.99v-7.99h1.7v11.38h-1.57zm-20.15 0v-11.38h7.16v1.55h-5.46v3.32h4.66v1.54h-4.66v3.42h5.46v1.55zm-8.39-7.61l-2.58 5.54h-1.26l-2.65-5.54v7.61h-1.7v-11.38h1.7l3.28 7.08 3.21-7.08h1.7v11.38h-1.7zm-17-2.22v9.83h-1.7v-9.83H55.3v-1.55h7.88v1.55zm-16.18 0v3.56h2.52a1.79 1.79 0 1 0 0-3.56zm4.5 9.83l-2.37-4.8h-2.12v4.8h-1.7v-11.38h4.35a3.23 3.23 0 0 1 3.48 3.32 2.98 2.98 0 0 1-2.24 3.02l2.58 5.04H48.4zm-16.32-8.8l-1.74 5.05h3.45zm2.95 8.8l-.77-2.28h-4.43l-.77 2.28h-1.81l4.11-11.37h1.37l4.11 11.37h-1.8zm-15.18-9.82h-2.46v3.78h2.46a1.9 1.9 0 1 0 0-3.79zm.1 5.35h-2.56v4.47h-1.7v-11.38h4.26a3.45 3.45 0 1 1 0 6.9zM5.56 148.1l-1.75 5.04h3.45zm2.95 8.8l-.77-2.29H3.32l-.77 2.29H.73l4.12-11.37h1.37l4.1 11.37zm116.55-30.7c0 2.4 1.08 3.69 2.64 3.69 1.61 0 2.68-1.28 2.68-3.69v-14.7c0-2.74-.92-4.02-2.68-4.02-1.72 0-2.63 1.28-2.63 4.03zm-3.82-14.38c0-3.92 1.26-7.37 6.46-7.37 4.94 0 6.5 2.6 6.5 6.94v14.15c0 3.92-1.26 7.37-6.5 7.37-4.9 0-6.46-2.6-6.46-6.94zm-19.27-7.13h3.82l3.98 22.25h.08l3.97-22.25h3.82l-5.62 27.99h-4.43zm-12.5 21.51c0 2.4 1.07 3.69 2.64 3.69 1.6 0 2.67-1.28 2.67-3.69v-14.7c0-2.74-.91-4.02-2.67-4.02-1.72 0-2.64 1.28-2.64 4.03zm-3.82-14.38c0-3.92 1.26-7.37 6.46-7.37 4.93 0 6.5 2.6 6.5 6.94v14.15c0 3.92-1.27 7.37-6.5 7.37-4.9 0-6.46-2.6-6.46-6.94zm-17.67-7.13h3.83v12.75h.07l6.04-12.75h3.83l-6.43 13.14 6.89 14.85h-4.29l-6.04-14h-.07v14h-3.83zm-14.72 0h3.83v24.73h6.42v3.26H53.27zM38.74 126.2c0 2.4 1.07 3.69 2.64 3.69 1.6 0 2.67-1.28 2.67-3.69v-14.7c0-2.74-.91-4.02-2.67-4.02-1.72 0-2.64 1.28-2.64 4.03zm-3.82-14.38c0-3.92 1.26-7.37 6.46-7.37 4.93 0 6.5 2.6 6.5 6.94v14.15c0 3.92-1.27 7.37-6.5 7.37-4.9 0-6.46-2.6-6.46-6.94zm-17.67-7.13h3.83v12.75h.07l6.04-12.75h3.83l-6.43 13.14 6.88 14.85H27.2l-6.04-14h-.07v14h-3.83zM.01 124.58h3.82v2.28c0 1.87.7 3.03 2.22 3.03 2.02 0 2.52-1.4 2.52-3.22 0-2.37-.11-3.14-4.09-7.14C2.03 117.05.01 114.8.01 111c0-4.57 2.1-6.55 6.27-6.55a6.47 6.47 0 0 1 4.47 1.55c.65.62 1.11 1.6 1.11 3.57v2.64h-3.6V110c0-1.59-.65-2.52-2.14-2.52-1.57 0-2.3.9-2.3 3.06 0 1.9.38 3.07 3.9 6.79 3.75 3.95 4.44 5.31 4.44 8.68 0 4.38-1.69 6.9-6.23 6.9-3.52 0-5.93-1.5-5.93-5v-3.33zM49.06 26.8c-1.14.46-2.25 1-3.35 1.54V.72h11.86v23.2c-2.9.76-5.75 1.72-8.51 2.88zM9.1 86.53C3.79 84.3.54 79.85.54 72.74V62.4h13.3l-1.44 4.46c-.13.38-.28.75-.4 1.13a70.04 70.04 0 0 0-2.13 9.76c-.3 1.62-.49 3.25-.57 4.9zm10.3-34.57a184.8 184.8 0 0 0-4.98-5.19C6.82 39.07.54 32.1.54 20.32.54 6.13 7.06 0 20 0 26.39 0 31 2.17 33.86 4.81c2.01 1.93 3.44 4.93 3.44 11.06v8.18H26.15v-6.86c0-4.92-2.01-7.81-6.64-7.81-4.86 0-7.11 2.77-7.11 9.5 0 5.89 1.19 9.5 12.1 21.04l2.3 2.47a77.73 77.73 0 0 0-6.4 7.97c-.36.52-.66 1.07-1 1.6zm58.62-30.03c-3.9-.24-7.81-.13-11.69.34L76.53.72H88.4zM38.25 66.85c0 13.59-5.22 21.4-19.33 21.4-1.04 0-2.03-.06-3-.15 0-.19-.03-.38-.03-.58.2-2.73.13-6.33.7-8.97l.02-.2a7 7 0 0 0 2.67.52c6.28 0 7.82-4.33 7.82-9.98 0-4.62-.15-7.3-3.34-11.73.6-1.1 1.22-2.2 1.88-3.26a70.65 70.65 0 0 1 5.18-6.94c6.1 7.36 7.43 11.72 7.43 19.89zM51 31.25a79.4 79.4 0 0 1 6.55-2.65v11.67h.24l6.42-13.56c.82-.17 1.65-.36 2.48-.49 2.64-.48 5.31-.78 8-.9l.9-.06.8.01-7.93 16.21 21.34 46.05H76.53L57.8 44.13h-.23v43.4H45.7V34.19a51.46 51.46 0 0 1 5.3-2.94zm60.09 2.4a64.8 64.8 0 0 0-11.26-6.34L91.34.73h11.87l9.68 34.3c-.59-.46-1.18-.92-1.79-1.37zm11.1 10.1a67.84 67.84 0 0 0-8.04-7.73L125.61.72h10.43L122.2 43.76zM100.7 30a61.39 61.39 0 0 1 9.55 4.95c1.12.71 2.2 1.47 3.24 2.24l.03.08h.08a59.83 59.83 0 0 1 8.29 7.46l-2.32 7.21v35.59H107.7V51.94z"/><clipPath id="iu3bb"><use xlink:href="#iu3ba"/></clipPath></defs><g><g><g/><g clip-path="url(#iu3bb)"><use fill="#1798c3" xlink:href="#iu3bc"/></g></g></g></svg>