<svg xmlns="http://www.w3.org/2000/svg" xmlns:xlink="http://www.w3.org/1999/xlink" width="20" height="26" viewBox="0 0 20 26"><defs><path id="xbc8a" d="M19.42 25.23c-.16.05-.33.1-.5.1-.38 0-.71-.16-.94-.55l-.33-.55H2.35l-.33.55c-.17.33-.56.56-.95.56-.16 0-.33 0-.5-.11-.55-.28-.72-.95-.44-1.5l3.66-6.77a2.16 2.16 0 0 1-1.83-2.16V4.88A4.89 4.89 0 0 1 6.84 0h6.32a4.83 4.83 0 0 1 4.82 4.82v9.98c0 1.06-.77 2-1.83 2.16l3.72 6.77c.28.55.1 1.22-.45 1.5zm-5.7-8.21H6.28l-.95 1.72h9.32zm2.38-3.6a1.6 1.6 0 1 0-1.6 1.6c.88 0 1.6-.77 1.6-1.6zM3.9 5.49l.06 2.66C3.96 8.7 4.4 9.2 5 9.2h9.98c.6 0 1.1-.44 1.1-1.05V5.49c0-1.72-1.43-3.1-3.1-3.1H6.95a3.09 3.09 0 0 0-3.05 3.1zm0 7.87a1.6 1.6 0 1 0 3.22 0 1.6 1.6 0 0 0-3.22 0zm12.86 9.2l-1.22-2.16H4.46l-1.22 2.16z"/></defs><g><g><g><use fill="#fff" xlink:href="#xbc8a"/></g></g></g></svg>